<svg width="30" height="39" viewBox="0 0 30 39" fill="none" xmlns="http://www.w3.org/2000/svg">
<path d="M15 0.36377C11.0232 0.368461 7.21062 1.95032 4.39859 4.76235C1.58656 7.57437 0.0047075 11.387 1.59585e-05 15.3638C-0.00474707 18.6136 1.05681 21.7753 3.02183 24.3637C3.02183 24.3637 3.43092 24.9024 3.49774 24.9801L15 38.5455L26.5077 24.9733C26.5677 24.901 26.9782 24.3637 26.9782 24.3637L26.9795 24.3597C28.9436 21.7723 30.0046 18.6121 30 15.3638C29.9953 11.387 28.4134 7.57437 25.6014 4.76235C22.7894 1.95032 18.9768 0.368461 15 0.36377ZM15 20.8183C13.9212 20.8183 12.8666 20.4984 11.9696 19.899C11.0726 19.2997 10.3735 18.4478 9.96066 17.4511C9.54782 16.4544 9.4398 15.3577 9.65027 14.2996C9.86073 13.2415 10.3802 12.2696 11.1431 11.5068C11.9059 10.744 12.8778 10.2245 13.9359 10.014C14.9939 9.80356 16.0907 9.91157 17.0874 10.3244C18.084 10.7373 18.9359 11.4364 19.5353 12.3334C20.1346 13.2304 20.4545 14.2849 20.4545 15.3638C20.4527 16.8098 19.8775 18.1962 18.8549 19.2187C17.8324 20.2412 16.4461 20.8165 15 20.8183Z" fill="url(#paint0_linear_76_462)"/>
<defs>
<linearGradient id="paint0_linear_76_462" x1="15" y1="0.36377" x2="15" y2="38.5455" gradientUnits="userSpaceOnUse">
<stop offset="0.225" stop-color="#CA79E5"/>
<stop offset="0.69" stop-color="#4E437F"/>
</linearGradient>
</defs>
</svg>
