<svg width="30" height="31" viewBox="0 0 30 31" fill="none" xmlns="http://www.w3.org/2000/svg">
<path d="M29.9825 23.1167C29.7151 25.1493 28.7169 27.015 27.1743 28.3654C25.6318 29.7158 23.6505 30.4585 21.6004 30.4548C9.69018 30.4548 1.35732e-05 20.7646 1.35732e-05 8.85443C-0.00366146 6.80433 0.739057 4.823 2.08945 3.28048C3.43984 1.73796 5.30556 0.739751 7.33814 0.472287C7.85213 0.409527 8.37263 0.51468 8.82195 0.772049C9.27126 1.02942 9.62529 1.4252 9.83118 1.90031L12.9992 8.97293V8.99093C13.1569 9.35462 13.222 9.75169 13.1887 10.1467C13.1555 10.5417 13.0249 10.9222 12.8087 11.2545C12.7817 11.295 12.7532 11.3325 12.7232 11.37L9.60018 15.072C10.7237 17.3551 13.1117 19.7221 15.4248 20.8486L19.0758 17.7421C19.1117 17.7119 19.1493 17.6839 19.1883 17.6581C19.5203 17.4367 19.9022 17.3015 20.2995 17.2649C20.6968 17.2282 21.097 17.2912 21.4639 17.4481L21.4834 17.4571L28.55 20.6236C29.026 20.8288 29.4227 21.1825 29.6809 21.6319C29.9391 22.0813 30.0449 22.6022 29.9825 23.1167Z" fill="url(#paint0_linear_76_458)"/>
<defs>
<linearGradient id="paint0_linear_76_458" x1="15" y1="0.45459" x2="15" y2="30.4548" gradientUnits="userSpaceOnUse">
<stop offset="0.225" stop-color="#CA79E5"/>
<stop offset="0.69" stop-color="#4E437F"/>
</linearGradient>
</defs>
</svg>
