<svg width="65" height="65" viewBox="0 0 65 65" fill="none" xmlns="http://www.w3.org/2000/svg">
<mask id="mask0_42_27" style="mask-type:alpha" maskUnits="userSpaceOnUse" x="0" y="0" width="65" height="65">
<rect width="65" height="65" fill="#D9D9D9"/>
</mask>
<g mask="url(#mask0_42_27)">
<path d="M32.5 56.875C25.684 56.875 19.9175 55.8255 15.2005 53.7266C10.4835 51.6276 8.125 49.066 8.125 46.0417V18.9583C8.125 15.9792 10.5061 13.4288 15.2682 11.3073C20.0304 9.18576 25.7743 8.125 32.5 8.125C39.2257 8.125 44.9696 9.18576 49.7318 11.3073C54.4939 13.4288 56.875 15.9792 56.875 18.9583V46.0417C56.875 49.066 54.5165 51.6276 49.7995 53.7266C45.0825 55.8255 39.316 56.875 32.5 56.875ZM32.5 24.4427C36.5174 24.4427 40.5573 23.8672 44.6198 22.7161C48.6823 21.5651 50.9618 20.3351 51.4583 19.026C50.9618 17.717 48.6936 16.4757 44.6536 15.3021C40.6137 14.1285 36.5625 13.5417 32.5 13.5417C28.3924 13.5417 24.3637 14.1172 20.4141 15.2682C16.4644 16.4193 14.1736 17.6719 13.5417 19.026C14.1736 20.3802 16.4644 21.6215 20.4141 22.75C24.3637 23.8785 28.3924 24.4427 32.5 24.4427ZM32.5 37.9167C34.3958 37.9167 36.224 37.8264 37.9844 37.6458C39.7448 37.4653 41.4262 37.2057 43.0286 36.8672C44.6311 36.5286 46.1432 36.1111 47.5651 35.6146C48.987 35.1181 50.2847 34.5538 51.4583 33.9219V25.7969C50.2847 26.4288 48.987 26.9931 47.5651 27.4896C46.1432 27.9861 44.6311 28.4036 43.0286 28.7422C41.4262 29.0807 39.7448 29.3403 37.9844 29.5208C36.224 29.7014 34.3958 29.7917 32.5 29.7917C30.6042 29.7917 28.7535 29.7014 26.9479 29.5208C25.1424 29.3403 23.4384 29.0807 21.8359 28.7422C20.2335 28.4036 18.7326 27.9861 17.3333 27.4896C15.934 26.9931 14.6701 26.4288 13.5417 25.7969V33.9219C14.6701 34.5538 15.934 35.1181 17.3333 35.6146C18.7326 36.1111 20.2335 36.5286 21.8359 36.8672C23.4384 37.2057 25.1424 37.4653 26.9479 37.6458C28.7535 37.8264 30.6042 37.9167 32.5 37.9167ZM32.5 51.4583C34.5764 51.4583 36.6866 51.3003 38.8307 50.9844C40.9748 50.6684 42.9497 50.2509 44.7552 49.7318C46.5608 49.2127 48.0729 48.6259 49.2917 47.9714C50.5104 47.3168 51.2326 46.651 51.4583 45.974V39.3385C50.2847 39.9705 48.987 40.5347 47.5651 41.0313C46.1432 41.5278 44.6311 41.9453 43.0286 42.2839C41.4262 42.6224 39.7448 42.8819 37.9844 43.0625C36.224 43.2431 34.3958 43.3333 32.5 43.3333C30.6042 43.3333 28.7535 43.2431 26.9479 43.0625C25.1424 42.8819 23.4384 42.6224 21.8359 42.2839C20.2335 41.9453 18.7326 41.5278 17.3333 41.0313C15.934 40.5347 14.6701 39.9705 13.5417 39.3385V46.0417C13.7674 46.7187 14.4783 47.3733 15.6745 48.0052C16.8707 48.6372 18.3715 49.2127 20.1771 49.7318C21.9826 50.2509 23.9687 50.6684 26.1354 50.9844C28.3021 51.3003 30.4236 51.4583 32.5 51.4583Z" fill="url(#paint0_linear_42_27)"/>
</g>
<defs>
<linearGradient id="paint0_linear_42_27" x1="32.5" y1="8.125" x2="32.5" y2="56.875" gradientUnits="userSpaceOnUse">
<stop offset="0.225" stop-color="#CA79E5"/>
<stop offset="0.69" stop-color="#4E437F"/>
</linearGradient>
</defs>
</svg>
