<svg width="60" height="60" viewBox="0 0 60 60" fill="none" xmlns="http://www.w3.org/2000/svg">
<mask id="mask0_62_101" style="mask-type:alpha" maskUnits="userSpaceOnUse" x="0" y="0" width="60" height="60">
<rect width="59.9203" height="59.9203" fill="#D9D9D9"/>
</mask>
<g mask="url(#mask0_62_101)">
<path d="M29.9601 52.43L26.34 49.1843C22.1372 45.3977 18.6627 42.1312 15.9163 39.3849C13.17 36.6385 10.9854 34.1731 9.36253 31.9885C7.73969 29.8039 6.60579 27.7961 5.96081 25.9652C5.31583 24.1343 4.99335 22.2618 4.99335 20.3477C4.99335 16.4362 6.3041 13.1697 8.92562 10.5482C11.5471 7.92672 14.8136 6.61597 18.7251 6.61597C20.8889 6.61597 22.9486 7.07369 24.9044 7.98914C26.8601 8.90459 28.5454 10.1945 29.9601 11.859C31.3749 10.1945 33.0602 8.90459 35.0159 7.98914C36.9716 7.07369 39.0314 6.61597 41.1952 6.61597C45.1067 6.61597 48.3731 7.92672 50.9947 10.5482C53.6162 13.1697 54.9269 16.4362 54.9269 20.3477C54.9269 22.2618 54.6044 24.1343 53.9595 25.9652C53.3145 27.7961 52.1806 29.8039 50.5577 31.9885C48.9349 34.1731 46.7503 36.6385 44.004 39.3849C41.2576 42.1312 37.7831 45.3977 33.5803 49.1843L29.9601 52.43ZM29.9601 45.689C33.9548 42.1104 37.2421 39.0416 39.822 36.4825C42.4019 33.9234 44.4409 31.6972 45.9389 29.8039C47.4369 27.9106 48.4772 26.2253 49.0597 24.7481C49.6423 23.2709 49.9336 21.8041 49.9336 20.3477C49.9336 17.851 49.1013 15.7705 47.4369 14.106C45.7724 12.4416 43.6919 11.6093 41.1952 11.6093C39.2395 11.6093 37.4294 12.1607 35.7649 13.2634C34.1005 14.3661 32.9562 15.7705 32.332 17.4765H27.5883C26.9641 15.7705 25.8198 14.3661 24.1554 13.2634C22.4909 12.1607 20.6808 11.6093 18.7251 11.6093C16.2284 11.6093 14.1478 12.4416 12.4834 14.106C10.8189 15.7705 9.9867 17.851 9.9867 20.3477C9.9867 21.8041 10.278 23.2709 10.8605 24.7481C11.4431 26.2253 12.4834 27.9106 13.9814 29.8039C15.4794 31.6972 17.5184 33.9234 20.0983 36.4825C22.6782 39.0416 25.9654 42.1104 29.9601 45.689Z" fill="url(#paint0_linear_62_101)"/>
</g>
<defs>
<linearGradient id="paint0_linear_62_101" x1="29.9601" y1="6.61597" x2="29.9601" y2="52.43" gradientUnits="userSpaceOnUse">
<stop offset="0.225" stop-color="#CA79E5"/>
<stop offset="0.69" stop-color="#4E437F"/>
</linearGradient>
</defs>
</svg>
