<svg width="65" height="65" viewBox="0 0 65 65" fill="none" xmlns="http://www.w3.org/2000/svg">
<mask id="mask0_62_89" style="mask-type:alpha" maskUnits="userSpaceOnUse" x="0" y="0" width="65" height="65">
<rect width="65" height="65" fill="#D9D9D9"/>
</mask>
<g mask="url(#mask0_62_89)">
<path d="M16.25 59.5833C14.7604 59.5833 13.4852 59.0529 12.4245 57.9921C11.3637 56.9313 10.8333 55.6562 10.8333 54.1666V27.0833C10.8333 25.5937 11.3637 24.3185 12.4245 23.2577C13.4852 22.197 14.7604 21.6666 16.25 21.6666H18.9583V16.2499C18.9583 12.5034 20.2786 9.30981 22.9193 6.66919C25.5599 4.02856 28.7535 2.70825 32.5 2.70825C36.2465 2.70825 39.4401 4.02856 42.0807 6.66919C44.7213 9.30981 46.0416 12.5034 46.0416 16.2499V21.6666H48.75C50.2396 21.6666 51.5147 22.197 52.5755 23.2577C53.6363 24.3185 54.1666 25.5937 54.1666 27.0833V54.1666C54.1666 55.6562 53.6363 56.9313 52.5755 57.9921C51.5147 59.0529 50.2396 59.5833 48.75 59.5833H16.25ZM16.25 54.1666H48.75V27.0833H16.25V54.1666ZM32.5 46.0416C33.9896 46.0416 35.2647 45.5112 36.3255 44.4504C37.3863 43.3897 37.9166 42.1145 37.9166 40.6249C37.9166 39.1353 37.3863 37.8602 36.3255 36.7994C35.2647 35.7386 33.9896 35.2083 32.5 35.2083C31.0104 35.2083 29.7352 35.7386 28.6745 36.7994C27.6137 37.8602 27.0833 39.1353 27.0833 40.6249C27.0833 42.1145 27.6137 43.3897 28.6745 44.4504C29.7352 45.5112 31.0104 46.0416 32.5 46.0416ZM24.375 21.6666H40.625V16.2499C40.625 13.993 39.835 12.0746 38.2552 10.4947C36.6753 8.91485 34.7569 8.12492 32.5 8.12492C30.243 8.12492 28.3246 8.91485 26.7448 10.4947C25.1649 12.0746 24.375 13.993 24.375 16.2499V21.6666Z" fill="url(#paint0_linear_62_89)"/>
</g>
<defs>
<linearGradient id="paint0_linear_62_89" x1="32.5" y1="2.70825" x2="32.5" y2="59.5833" gradientUnits="userSpaceOnUse">
<stop offset="0.225" stop-color="#CA79E5"/>
<stop offset="0.69" stop-color="#4E437F"/>
</linearGradient>
</defs>
</svg>
