<svg width="65" height="65" viewBox="0 0 65 65" fill="none" xmlns="http://www.w3.org/2000/svg">
<mask id="mask0_47_39" style="mask-type:alpha" maskUnits="userSpaceOnUse" x="0" y="0" width="65" height="65">
<rect width="65" height="65" fill="#D9D9D9"/>
</mask>
<g mask="url(#mask0_47_39)">
<path d="M32.5 59.5834C28.7986 59.5834 25.3004 58.8725 22.0052 57.4506C18.7101 56.0287 15.8325 54.0878 13.3724 51.6277C10.9123 49.1676 8.97136 46.29 7.54948 42.9949C6.12761 39.6997 5.41667 36.2015 5.41667 32.5001C5.41667 28.7536 6.15018 25.2327 7.61719 21.9376C9.08421 18.6424 11.0703 15.7761 13.5755 13.3386C16.0807 10.9011 19.0035 8.97144 22.3438 7.54956C25.684 6.12769 29.25 5.41675 33.0417 5.41675C36.6528 5.41675 40.0608 6.03741 43.2656 7.27873C46.4705 8.52005 49.2804 10.2353 51.6953 12.4246C54.1103 14.6138 56.0287 17.2093 57.4505 20.211C58.8724 23.2128 59.5833 26.4515 59.5833 29.9272C59.5833 35.1181 58.0035 39.1016 54.8438 41.8777C51.684 44.6537 47.8472 46.0418 43.3333 46.0418H38.3229C37.9167 46.0418 37.6346 46.1546 37.4766 46.3803C37.3186 46.606 37.2396 46.8543 37.2396 47.1251C37.2396 47.6668 37.5781 48.4454 38.2552 49.461C38.9323 50.4766 39.2708 51.639 39.2708 52.948C39.2708 55.2049 38.6502 56.8751 37.4089 57.9584C36.1675 59.0418 34.5313 59.5834 32.5 59.5834ZM17.6042 35.2084C18.7778 35.2084 19.7483 34.8247 20.5156 34.0574C21.283 33.29 21.6667 32.3195 21.6667 31.1459C21.6667 29.9723 21.283 29.0018 20.5156 28.2345C19.7483 27.4671 18.7778 27.0834 17.6042 27.0834C16.4306 27.0834 15.4601 27.4671 14.6927 28.2345C13.9254 29.0018 13.5417 29.9723 13.5417 31.1459C13.5417 32.3195 13.9254 33.29 14.6927 34.0574C15.4601 34.8247 16.4306 35.2084 17.6042 35.2084ZM25.7292 24.3751C26.9028 24.3751 27.8733 23.9914 28.6406 23.224C29.408 22.4567 29.7917 21.4862 29.7917 20.3126C29.7917 19.139 29.408 18.1685 28.6406 17.4011C27.8733 16.6338 26.9028 16.2501 25.7292 16.2501C24.5556 16.2501 23.5851 16.6338 22.8177 17.4011C22.0504 18.1685 21.6667 19.139 21.6667 20.3126C21.6667 21.4862 22.0504 22.4567 22.8177 23.224C23.5851 23.9914 24.5556 24.3751 25.7292 24.3751ZM39.2708 24.3751C40.4445 24.3751 41.4149 23.9914 42.1823 23.224C42.9497 22.4567 43.3333 21.4862 43.3333 20.3126C43.3333 19.139 42.9497 18.1685 42.1823 17.4011C41.4149 16.6338 40.4445 16.2501 39.2708 16.2501C38.0972 16.2501 37.1267 16.6338 36.3594 17.4011C35.592 18.1685 35.2083 19.139 35.2083 20.3126C35.2083 21.4862 35.592 22.4567 36.3594 23.224C37.1267 23.9914 38.0972 24.3751 39.2708 24.3751ZM47.3958 35.2084C48.5695 35.2084 49.5399 34.8247 50.3073 34.0574C51.0747 33.29 51.4583 32.3195 51.4583 31.1459C51.4583 29.9723 51.0747 29.0018 50.3073 28.2345C49.5399 27.4671 48.5695 27.0834 47.3958 27.0834C46.2222 27.0834 45.2517 27.4671 44.4844 28.2345C43.717 29.0018 43.3333 29.9723 43.3333 31.1459C43.3333 32.3195 43.717 33.29 44.4844 34.0574C45.2517 34.8247 46.2222 35.2084 47.3958 35.2084ZM32.5 54.1668C32.9063 54.1668 33.2335 54.0539 33.4818 53.8282C33.73 53.6025 33.8542 53.3091 33.8542 52.948C33.8542 52.3161 33.5156 51.5713 32.8385 50.7136C32.1615 49.856 31.8229 48.5695 31.8229 46.8543C31.8229 44.9584 32.4774 43.4463 33.7865 42.3178C35.0955 41.1893 36.6979 40.6251 38.5938 40.6251H43.3333C46.3125 40.6251 48.8629 39.7562 50.9844 38.0183C53.1059 36.2805 54.1667 33.5834 54.1667 29.9272C54.1667 24.4654 52.079 19.9176 47.9037 16.2839C43.7283 12.6503 38.7743 10.8334 33.0417 10.8334C26.9028 10.8334 21.6667 12.9324 17.3333 17.1303C13 21.3282 10.8333 26.4515 10.8333 32.5001C10.8333 38.5036 12.9436 43.6155 17.1641 47.836C21.3846 52.0565 26.4965 54.1668 32.5 54.1668Z" fill="url(#paint0_linear_47_39)"/>
</g>
<defs>
<linearGradient id="paint0_linear_47_39" x1="32.5" y1="5.41675" x2="32.5" y2="59.5834" gradientUnits="userSpaceOnUse">
<stop offset="0.225" stop-color="#CA79E5"/>
<stop offset="0.69" stop-color="#4E437F"/>
</linearGradient>
</defs>
</svg>
