<svg width="65" height="65" viewBox="0 0 65 65" fill="none" xmlns="http://www.w3.org/2000/svg">
<mask id="mask0_42_19" style="mask-type:alpha" maskUnits="userSpaceOnUse" x="0" y="0" width="65" height="65">
<rect width="65" height="65" fill="#D9D9D9"/>
</mask>
<g mask="url(#mask0_42_19)">
<path d="M18.9584 62.2916C17.4688 62.2916 16.1936 61.7612 15.1328 60.7004C14.0721 59.6397 13.5417 58.3645 13.5417 56.8749V8.12492C13.5417 6.63534 14.0721 5.36016 15.1328 4.2994C16.1936 3.23863 17.4688 2.70825 18.9584 2.70825H46.0417C47.5313 2.70825 48.8064 3.23863 49.8672 4.2994C50.928 5.36016 51.4584 6.63534 51.4584 8.12492V56.8749C51.4584 58.3645 50.928 59.6397 49.8672 60.7004C48.8064 61.7612 47.5313 62.2916 46.0417 62.2916H18.9584ZM18.9584 48.7499V56.8749H46.0417V48.7499H18.9584ZM32.5 55.5208C33.2674 55.5208 33.9106 55.2612 34.4297 54.7421C34.9488 54.223 35.2084 53.5798 35.2084 52.8124C35.2084 52.0451 34.9488 51.4018 34.4297 50.8827C33.9106 50.3636 33.2674 50.1041 32.5 50.1041C31.7327 50.1041 31.0894 50.3636 30.5703 50.8827C30.0512 51.4018 29.7917 52.0451 29.7917 52.8124C29.7917 53.5798 30.0512 54.223 30.5703 54.7421C31.0894 55.2612 31.7327 55.5208 32.5 55.5208ZM18.9584 43.3333H46.0417V16.2499H18.9584V43.3333ZM18.9584 10.8333H46.0417V8.12492H18.9584V10.8333Z" fill="url(#paint0_linear_42_19)"/>
</g>
<defs>
<linearGradient id="paint0_linear_42_19" x1="32.5" y1="2.70825" x2="32.5" y2="62.2916" gradientUnits="userSpaceOnUse">
<stop offset="0.225" stop-color="#CA79E5"/>
<stop offset="0.69" stop-color="#4E437F"/>
</linearGradient>
</defs>
</svg>
