<svg width="65" height="65" viewBox="0 0 65 65" fill="none" xmlns="http://www.w3.org/2000/svg">
<mask id="mask0_64_7" style="mask-type:alpha" maskUnits="userSpaceOnUse" x="0" y="0" width="65" height="65">
<rect width="65" height="65" fill="#D9D9D9"/>
</mask>
<g mask="url(#mask0_64_7)">
<path d="M15.3022 27.1515L20.5835 29.3859C21.2154 28.122 21.8699 26.9032 22.547 25.7296C23.2241 24.556 23.9689 23.3824 24.7814 22.2088L20.9897 21.464L15.3022 27.1515ZM24.9168 32.7713L32.6355 40.4223C34.5314 39.7001 36.5626 38.5942 38.7293 37.1046C40.896 35.615 42.9272 33.9223 44.823 32.0265C47.9828 28.8668 50.4541 25.3572 52.2371 21.4978C54.0201 17.6385 54.7987 14.0838 54.573 10.8338C51.323 10.6081 47.7571 11.3867 43.8751 13.1697C39.9932 14.9527 36.4724 17.424 33.3126 20.5838C31.4168 22.4796 29.7241 24.5109 28.2345 26.6775C26.7449 28.8442 25.639 30.8754 24.9168 32.7713ZM36.9689 28.3702C35.9307 27.332 35.4116 26.0569 35.4116 24.5447C35.4116 23.0326 35.9307 21.7574 36.9689 20.7192C38.0071 19.681 39.2935 19.1619 40.8283 19.1619C42.363 19.1619 43.6494 19.681 44.6876 20.7192C45.7258 21.7574 46.2449 23.0326 46.2449 24.5447C46.2449 26.0569 45.7258 27.332 44.6876 28.3702C43.6494 29.4084 42.363 29.9275 40.8283 29.9275C39.2935 29.9275 38.0071 29.4084 36.9689 28.3702ZM38.2553 50.1046L43.9428 44.4171L43.198 40.6254C42.0244 41.4379 40.8508 42.1714 39.6772 42.826C38.5036 43.4805 37.2849 44.1237 36.021 44.7556L38.2553 50.1046ZM59.448 5.89106C60.3057 11.3529 59.7753 16.668 57.8569 21.8364C55.9385 27.0048 52.6321 31.9362 47.9376 36.6306L49.2918 43.3338C49.4724 44.2365 49.4272 45.1168 49.1564 45.9744C48.8855 46.832 48.4342 47.5768 47.8022 48.2088L36.4272 59.5838L30.7397 46.2452L19.1616 34.6671L5.82305 28.9796L17.1303 17.6046C17.7623 16.9727 18.5184 16.5213 19.3986 16.2504C20.2788 15.9796 21.1703 15.9345 22.073 16.115L28.7762 17.4692C33.4706 12.7747 38.3908 9.45704 43.5366 7.51606C48.6824 5.57509 53.9862 5.03342 59.448 5.89106ZM10.6303 43.2661C12.2102 41.6862 14.1399 40.885 16.4194 40.8624C18.6989 40.8398 20.6286 41.6185 22.2085 43.1984C23.7883 44.7782 24.567 46.7079 24.5444 48.9874C24.5218 51.2669 23.7206 53.1966 22.1408 54.7765C21.0123 55.9049 19.1277 56.8754 16.4871 57.6879C13.8465 58.5004 10.2015 59.2227 5.55222 59.8546C6.18416 55.2053 6.90638 51.5603 7.71888 48.9197C8.53138 46.2791 9.50187 44.3945 10.6303 43.2661ZM14.4897 47.0577C14.0383 47.5091 13.5869 48.3329 13.1355 49.5291C12.6842 50.7253 12.3682 51.9327 12.1876 53.1515C13.4064 52.9709 14.6138 52.6662 15.81 52.2374C17.0062 51.8086 17.83 51.3685 18.2814 50.9171C18.823 50.3754 19.1165 49.7209 19.1616 48.9536C19.2067 48.1862 18.9585 47.5317 18.4168 46.99C17.8751 46.4483 17.2206 46.1888 16.4533 46.2114C15.6859 46.2339 15.0314 46.5161 14.4897 47.0577Z" fill="url(#paint0_linear_64_7)"/>
</g>
<defs>
<linearGradient id="paint0_linear_64_7" x1="32.6989" y1="5.49683" x2="32.6989" y2="59.8546" gradientUnits="userSpaceOnUse">
<stop offset="0.225" stop-color="#CA79E5"/>
<stop offset="0.69" stop-color="#4E437F"/>
</linearGradient>
</defs>
</svg>
