<svg width="65" height="65" viewBox="0 0 65 65" fill="none" xmlns="http://www.w3.org/2000/svg">
<mask id="mask0_47_57" style="mask-type:alpha" maskUnits="userSpaceOnUse" x="0" y="0" width="65" height="65">
<rect width="65" height="65" fill="#D9D9D9"/>
</mask>
<g mask="url(#mask0_47_57)">
<path d="M48.7501 56.8751V40.6251L62.2917 48.7501L48.7501 56.8751ZM35.2084 56.8751V40.6251L48.7501 48.7501L35.2084 56.8751ZM25.0521 59.5834L23.9688 50.9168C23.382 50.6911 22.8291 50.4202 22.31 50.1043C21.7909 49.7883 21.283 49.4497 20.7865 49.0886L12.7292 52.474L5.28131 39.6095L12.2553 34.3282C12.2101 34.0122 12.1876 33.7075 12.1876 33.4141V31.586C12.1876 31.2926 12.2101 30.9879 12.2553 30.672L5.28131 25.3907L12.7292 12.5261L20.7865 15.9115C21.283 15.5504 21.8021 15.2119 22.3438 14.8959C22.8855 14.5799 23.4271 14.3091 23.9688 14.0834L25.0521 5.41675H39.948L41.0313 14.0834C41.6181 14.3091 42.1711 14.5799 42.6902 14.8959C43.2093 15.2119 43.7171 15.5504 44.2136 15.9115L52.2709 12.5261L59.7188 25.3907L52.7449 30.672C52.79 30.9879 52.8126 31.2926 52.8126 31.586V33.8542C52.8126 34.3056 52.7674 34.757 52.6771 35.2084H47.1251C47.2153 34.757 47.2831 34.3056 47.3282 33.8542C47.3733 33.4029 47.3959 32.9515 47.3959 32.5001C47.3508 31.6424 47.283 30.8864 47.1928 30.2319C47.1025 29.5773 46.9671 28.9567 46.7865 28.3699L52.6094 23.9688L49.9688 19.3647L43.2657 22.2084C42.2726 21.1702 41.178 20.3013 39.9818 19.6016C38.7857 18.902 37.4879 18.3716 36.0886 18.0105L35.2084 10.8334H29.8594L28.9115 18.0105C27.5122 18.3716 26.2145 18.902 25.0183 19.6016C23.8221 20.3013 22.7275 21.1477 21.7344 22.1407L15.0313 19.3647L12.3907 23.9688L18.2136 28.3022C17.9879 28.9792 17.8299 29.6563 17.7396 30.3334C17.6494 31.0105 17.6042 31.7327 17.6042 32.5001C17.6042 33.2223 17.6494 33.922 17.7396 34.599C17.8299 35.2761 17.9879 35.9532 18.2136 36.6303L12.3907 41.0313L15.0313 45.6355L21.7344 42.7918C22.8178 43.9202 24.0365 44.8681 25.3907 45.6355C26.7449 46.4029 28.2119 46.8994 29.7917 47.1251V59.5834H25.0521ZM29.7917 41.573V35.4115C29.4306 35.0504 29.1372 34.6216 28.9115 34.1251C28.6858 33.6286 28.573 33.0869 28.573 32.5001C28.573 31.3716 28.9679 30.4124 29.7579 29.6225C30.5478 28.8325 31.507 28.4376 32.6355 28.4376C33.764 28.4376 34.7232 28.8325 35.5131 29.6225C36.303 30.4124 36.698 31.3716 36.698 32.5001C36.698 32.9966 36.619 33.4819 36.461 33.9558C36.303 34.4298 36.0435 34.8473 35.6824 35.2084H41.7084C41.8438 34.757 41.9454 34.3169 42.0131 33.8881C42.0808 33.4593 42.1146 32.9966 42.1146 32.5001C42.1146 29.882 41.1893 27.6477 39.3386 25.797C37.4879 23.9463 35.2535 23.0209 32.6355 23.0209C29.9723 23.0209 27.7266 23.9463 25.8985 25.797C24.0704 27.6477 23.1563 29.882 23.1563 32.5001C23.1563 34.6667 23.777 36.5626 25.0183 38.1876C26.2596 39.8126 27.8508 40.9411 29.7917 41.573Z" fill="url(#paint0_linear_47_57)"/>
</g>
<defs>
<linearGradient id="paint0_linear_47_57" x1="33.7865" y1="5.41675" x2="33.7865" y2="59.5834" gradientUnits="userSpaceOnUse">
<stop offset="0.225" stop-color="#CA79E5"/>
<stop offset="0.69" stop-color="#4E437F"/>
</linearGradient>
</defs>
</svg>
