<svg width="65" height="65" viewBox="0 0 65 65" fill="none" xmlns="http://www.w3.org/2000/svg">
<mask id="mask0_47_136" style="mask-type:alpha" maskUnits="userSpaceOnUse" x="0" y="0" width="65" height="65">
<rect width="65" height="65" fill="#D9D9D9"/>
</mask>
<g mask="url(#mask0_47_136)">
<path d="M32.9924 60.0758C29.291 60.0758 25.7928 59.3649 22.4976 57.943C19.2025 56.5212 16.3249 54.5802 13.8648 52.1201C11.4047 49.6601 9.46378 46.7824 8.0419 43.4873C6.62003 40.1922 5.90909 36.6939 5.90909 32.9925C5.90909 29.246 6.62003 25.7364 8.0419 22.4639C9.46378 19.1913 11.4047 16.325 13.8648 13.8649C16.3249 11.4048 19.2025 9.46387 22.4976 8.04199C25.7928 6.62012 29.291 5.90918 32.9924 5.90918C36.739 5.90918 40.2485 6.62012 43.5211 8.04199C46.7936 9.46387 49.66 11.4048 52.12 13.8649C54.5801 16.325 56.5211 19.1913 57.9429 22.4639C59.3648 25.7364 60.0758 29.246 60.0758 32.9925C60.0758 36.6939 59.3648 40.1922 57.9429 43.4873C56.5211 46.7824 54.5801 49.6601 52.12 52.1201C49.66 54.5802 46.7936 56.5212 43.5211 57.943C40.2485 59.3649 36.739 60.0758 32.9924 60.0758ZM32.9924 54.5238C34.166 52.8988 35.1817 51.2061 36.0393 49.4456C36.8969 47.6852 37.5966 45.812 38.1383 43.8258H27.8466C28.3883 45.812 29.0879 47.6852 29.9455 49.4456C30.8032 51.2061 31.8188 52.8988 32.9924 54.5238ZM25.9508 53.4404C25.1383 51.9509 24.4273 50.4048 23.8179 48.8024C23.2086 47.2 22.7008 45.5411 22.2945 43.8258H14.3049C15.614 46.0828 17.2502 48.0463 19.2138 49.7165C21.1773 51.3866 23.423 52.6279 25.9508 53.4404ZM40.0341 53.4404C42.5619 52.6279 44.8075 51.3866 46.7711 49.7165C48.7346 48.0463 50.3709 46.0828 51.6799 43.8258H43.6903C43.2841 45.5411 42.7763 47.2 42.1669 48.8024C41.5575 50.4048 40.8466 51.9509 40.0341 53.4404ZM12.0028 38.4092H21.2112C21.0758 37.5064 20.9742 36.6149 20.9065 35.7347C20.8388 34.8545 20.8049 33.9404 20.8049 32.9925C20.8049 32.0446 20.8388 31.1305 20.9065 30.2503C20.9742 29.3701 21.0758 28.4786 21.2112 27.5758H12.0028C11.7771 28.4786 11.6079 29.3701 11.495 30.2503C11.3822 31.1305 11.3258 32.0446 11.3258 32.9925C11.3258 33.9404 11.3822 34.8545 11.495 35.7347C11.6079 36.6149 11.7771 37.5064 12.0028 38.4092ZM26.6278 38.4092H39.357C39.4924 37.5064 39.594 36.6149 39.6617 35.7347C39.7294 34.8545 39.7633 33.9404 39.7633 32.9925C39.7633 32.0446 39.7294 31.1305 39.6617 30.2503C39.594 29.3701 39.4924 28.4786 39.357 27.5758H26.6278C26.4924 28.4786 26.3909 29.3701 26.3232 30.2503C26.2554 31.1305 26.2216 32.0446 26.2216 32.9925C26.2216 33.9404 26.2554 34.8545 26.3232 35.7347C26.3909 36.6149 26.4924 37.5064 26.6278 38.4092ZM44.7737 38.4092H53.982C54.2077 37.5064 54.377 36.6149 54.4898 35.7347C54.6027 34.8545 54.6591 33.9404 54.6591 32.9925C54.6591 32.0446 54.6027 31.1305 54.4898 30.2503C54.377 29.3701 54.2077 28.4786 53.982 27.5758H44.7737C44.9091 28.4786 45.0107 29.3701 45.0784 30.2503C45.1461 31.1305 45.1799 32.0446 45.1799 32.9925C45.1799 33.9404 45.1461 34.8545 45.0784 35.7347C45.0107 36.6149 44.9091 37.5064 44.7737 38.4092ZM43.6903 22.1592H51.6799C50.3709 19.9022 48.7346 17.9387 46.7711 16.2686C44.8075 14.5984 42.5619 13.3571 40.0341 12.5446C40.8466 14.0342 41.5575 15.5802 42.1669 17.1826C42.7763 18.785 43.2841 20.4439 43.6903 22.1592ZM27.8466 22.1592H38.1383C37.5966 20.1731 36.8969 18.2998 36.0393 16.5394C35.1817 14.779 34.166 13.0863 32.9924 11.4613C31.8188 13.0863 30.8032 14.779 29.9455 16.5394C29.0879 18.2998 28.3883 20.1731 27.8466 22.1592ZM14.3049 22.1592H22.2945C22.7008 20.4439 23.2086 18.785 23.8179 17.1826C24.4273 15.5802 25.1383 14.0342 25.9508 12.5446C23.423 13.3571 21.1773 14.5984 19.2138 16.2686C17.2502 17.9387 15.614 19.9022 14.3049 22.1592Z" fill="url(#paint0_linear_47_136)"/>
</g>
<defs>
<linearGradient id="paint0_linear_47_136" x1="32.9924" y1="5.90918" x2="32.9924" y2="60.0758" gradientUnits="userSpaceOnUse">
<stop offset="0.225" stop-color="#CA79E5"/>
<stop offset="0.69" stop-color="#4E437F"/>
</linearGradient>
</defs>
</svg>
