<svg width="65" height="65" viewBox="0 0 65 65" fill="none" xmlns="http://www.w3.org/2000/svg">
<mask id="mask0_47_45" style="mask-type:alpha" maskUnits="userSpaceOnUse" x="0" y="0" width="65" height="65">
<rect width="65" height="65" fill="#D9D9D9"/>
</mask>
<g mask="url(#mask0_47_45)">
<path d="M10.8334 56.8751C9.34377 56.8751 8.0686 56.3447 7.00783 55.2839C5.94707 54.2232 5.41669 52.948 5.41669 51.4584V21.6667C5.41669 20.1772 5.94707 18.902 7.00783 17.8412C8.0686 16.7805 9.34377 16.2501 10.8334 16.2501H21.6667V10.8334C21.6667 9.34383 22.1971 8.06866 23.2578 7.00789C24.3186 5.94713 25.5938 5.41675 27.0834 5.41675H37.9167C39.4063 5.41675 40.6814 5.94713 41.7422 7.00789C42.803 8.06866 43.3334 9.34383 43.3334 10.8334V16.2501H54.1667C55.6563 16.2501 56.9314 16.7805 57.9922 17.8412C59.053 18.902 59.5834 20.1772 59.5834 21.6667V51.4584C59.5834 52.948 59.053 54.2232 57.9922 55.2839C56.9314 56.3447 55.6563 56.8751 54.1667 56.8751H10.8334ZM10.8334 51.4584H54.1667V21.6667H10.8334V51.4584ZM27.0834 16.2501H37.9167V10.8334H27.0834V16.2501Z" fill="url(#paint0_linear_47_45)"/>
</g>
<defs>
<linearGradient id="paint0_linear_47_45" x1="32.5" y1="5.41675" x2="32.5" y2="56.8751" gradientUnits="userSpaceOnUse">
<stop offset="0.225" stop-color="#CA79E5"/>
<stop offset="0.69" stop-color="#4E437F"/>
</linearGradient>
</defs>
</svg>
