<svg width="101" height="101" viewBox="0 0 101 101" fill="none" xmlns="http://www.w3.org/2000/svg">
<path d="M59.2732 0C58.5476 0 57.8722 0.155809 57.2473 0.366363C58.5727 1.25069 59.3026 2.42979 59.6633 3.76048C59.6927 3.94156 59.743 4.0721 59.7682 4.25318C59.7993 4.40861 59.8175 4.56636 59.8227 4.72482C59.9234 7.01985 59.2229 7.31041 58.7321 8.66638C57.9771 10.414 58.1868 12.2921 59.0929 13.8039C59.1758 14.0066 59.2799 14.2 59.4033 14.3808C58.4175 7.77784 63.904 6.78824 64.9149 4.72482C64.9946 2.92248 63.5139 1.72233 62.3436 0.888535C61.424 0.308372 60.3594 0.00175071 59.2732 0.00421107V0ZM67.5407 1.48651C67.44 2.08869 67.5155 1.93288 67.4903 2.2445C67.4652 2.45505 67.4652 2.71614 67.44 2.92248C67.3855 3.13303 67.3351 3.34359 67.2554 3.54993C67.2051 3.76048 67.1296 3.97104 67.0457 4.17738L66.7647 4.77535C66.6808 4.88063 66.6346 4.9859 66.5549 5.09118L66.3997 5.32279C66.276 5.50149 66.1459 5.67566 66.0097 5.84496C65.8545 6.00498 65.7244 6.18606 65.5399 6.3166V6.34187C65.3847 6.47241 65.2295 6.62822 65.0449 6.76297C64.4996 7.17987 63.8788 7.49149 63.3042 7.88312C63.1238 8.00945 62.9393 8.11894 62.7841 8.27475C62.6076 8.39935 62.442 8.53882 62.2891 8.69164C62.1087 8.84745 61.9787 9.00326 61.8235 9.18855C61.6935 9.34436 61.5383 9.52543 61.4334 9.71072C61.3028 9.88704 61.1811 10.0697 61.0685 10.2582C60.9636 10.4687 60.8881 10.6498 60.7833 10.8561C60.7036 11.0667 60.6281 11.2478 60.5735 11.4583C60.5047 11.6734 60.4446 11.8911 60.3932 12.111C60.368 12.2163 60.368 12.3468 60.3428 12.4479C60.3135 12.5532 60.3135 12.6585 60.2883 12.7637C60.2883 12.9743 60.2631 13.2059 60.2631 13.4165C60.2631 13.5723 60.2631 13.7281 60.2883 13.8839C60.2883 14.0944 60.3135 14.305 60.368 14.5366C60.3932 14.7472 60.4435 14.9577 60.4938 15.1683C60.5777 15.3746 60.6281 15.5809 60.7036 15.7915C60.7581 15.9178 60.8336 16.0526 60.8881 16.1579L54.9067 13.8334C53.8958 13.547 52.9059 13.2859 51.8908 13.0501L50.255 12.6585C48.6946 12.3468 47.109 12.111 45.5235 11.9552C45.469 11.9552 45.4438 11.93 45.3935 11.93C42.7143 11.6605 40.0168 11.6253 37.3316 11.8247C35.746 11.93 34.1605 12.1363 32.575 12.3974C31.3967 12.6012 30.2257 12.8456 29.0641 13.1301L27.8939 13.4417C27.508 13.5975 27.1388 13.7786 26.7781 13.9386L25.9182 14.3303C25.8679 14.3555 25.8176 14.3555 25.7924 14.3808C25.5281 14.5113 25.2974 14.6166 25.0625 14.7472C24.7248 14.8967 24.3945 15.0626 24.0726 15.2441C23.8923 15.3199 23.7119 15.4251 23.5525 15.5051C23.478 15.5516 23.401 15.5937 23.3218 15.6315C23.0869 15.7662 22.852 15.8968 22.6423 16.0273C22.4282 16.1461 22.221 16.2769 22.0215 16.4189C21.8369 16.5453 21.6566 16.6506 21.5014 16.7811C21.4762 16.8106 21.4468 16.8106 21.4217 16.8358C21.2665 16.9411 21.0861 17.0717 20.9267 17.2022L20.8764 17.2527L20.4863 17.5644C20.436 17.5938 20.3814 17.6444 20.3311 17.6696C20.2011 17.7749 20.071 17.9055 19.941 18.0065C19.9158 18.0613 19.8613 18.0907 19.8361 18.1118C19.6809 18.2718 19.5257 18.4024 19.3705 18.5582C19.3412 18.5582 19.3412 18.5834 19.316 18.6087C19.1544 18.7506 18.999 18.8995 18.8504 19.0551C18.8211 19.0803 18.8211 19.1056 18.7959 19.1056C18.6594 19.2398 18.5292 19.3803 18.4058 19.5267C18.3555 19.5772 18.28 19.6278 18.2254 19.6783C18.0861 19.8438 17.9377 20.0012 17.7808 20.15C17.7556 20.2005 17.7053 20.23 17.6801 20.2763C17.4704 20.4868 17.2901 20.6974 17.0803 20.9079L17.0048 20.9837C16.5854 21.4301 16.1449 21.8723 15.6752 22.2639C15.2096 22.685 14.7146 23.0724 14.2197 23.4135C13.2259 24.1262 12.1533 24.7211 11.0234 25.1864C10.4781 25.4222 9.90347 25.6328 9.33301 25.8138C8.24243 26.0497 7.12249 26.4918 6.16194 26.5718C5.95221 26.5718 5.72151 26.6224 5.51178 26.6476L4.86163 26.8034L4.23664 27.0393C4.02692 27.1193 3.82138 27.2245 3.61585 27.3256C3.43129 27.4562 3.22576 27.5614 3.0412 27.692C2.85613 27.8265 2.68219 27.9757 2.52108 28.1383C2.34071 28.2647 2.15615 28.45 2.00095 28.6058C1.84575 28.7868 1.69056 28.9427 1.56053 29.1279C1.4305 29.3385 1.2753 29.5196 1.17043 29.7301C1.03381 29.9198 0.911812 30.1197 0.805509 30.3281C0.700645 30.5639 0.595782 30.7745 0.52028 31.0061C0.440584 31.2166 0.365082 31.4525 0.285386 31.6841C0.235051 31.8946 0.180522 32.1052 0.159549 32.3157C0.159549 32.3368 0.130188 32.3663 0.130188 32.3915C0.0798531 32.6273 0.0798531 32.939 0.0504914 33.0948C0.0253241 33.2801 0.000156851 33.4317 0.000156851 33.6169C-0.00466904 34.0711 0.101933 34.5194 0.310553 34.9224V34.9476C0.390249 35.1035 0.495113 35.2635 0.599976 35.4193C0.700645 35.5751 0.809703 35.7309 0.93554 35.8867C1.06557 36.0173 1.22077 36.1773 1.38016 36.3078C1.53173 36.4604 1.6959 36.5999 1.87092 36.7247C2.49591 37.2721 2.65111 37.4532 3.45646 37.8701C3.58649 37.9501 3.71652 38.0007 3.87591 38.0807C3.90108 38.0807 3.92625 38.1059 3.95141 38.1059C3.95141 38.1607 3.95141 38.1859 3.97658 38.2365C4.0373 38.6669 4.14998 39.0883 4.31215 39.4914C4.39604 39.6472 4.44637 39.803 4.52187 39.9588C4.55123 40.0136 4.5764 40.0641 4.60576 40.0894C4.70643 40.2999 4.8113 40.481 4.91196 40.6663L5.30206 41.2137C5.43209 41.3695 5.59148 41.5506 5.74668 41.7106C5.90188 41.8664 6.05708 41.997 6.24163 42.1528C6.24163 42.1528 6.2668 42.178 6.29197 42.178C6.44717 42.3086 6.60237 42.4391 6.76176 42.5444C6.94264 42.6718 7.1334 42.7845 7.33222 42.8813C7.51258 42.9866 7.72231 43.0918 7.92784 43.1719C8.09545 43.2478 8.26952 43.3084 8.44796 43.3529C8.47732 43.3782 8.50249 43.3782 8.55283 43.4035C8.65769 43.4329 8.78772 43.4582 8.88839 43.4835C8.81289 44.8942 8.78772 46.2207 8.99745 46.6923C9.22815 47.2145 10.3733 45.6227 11.5142 43.7951C11.3632 45.5974 11.2583 47.7114 11.5142 48.3388C11.8036 48.9915 13.3598 46.9534 14.7146 44.7089C33.1496 40.4304 49.9697 53.2152 51.7356 71.2807C51.4001 68.4593 47.9396 66.897 46.354 67.2886C45.5738 69.2173 44.2484 71.6976 42.1175 73.2389C42.2979 71.5123 42.2224 69.7437 41.8575 68.0171C41.2752 70.4204 40.1741 72.666 38.6319 74.5948C36.1655 74.7759 33.6949 73.5757 32.3946 71.7734C32.2897 71.6976 32.2646 71.5418 32.1849 71.4365C32.1094 71.2554 32.0297 71.0702 31.9751 70.8891C31.8997 70.7142 31.8475 70.5302 31.8199 70.3416C31.7948 70.1564 31.7948 69.9753 31.7948 69.7647V69.3731C31.8258 69.1879 31.8693 69.005 31.9248 68.8257C31.9793 68.6446 32.0297 68.4635 32.1094 68.2782C32.21 68.0971 32.2897 67.9119 32.4198 67.7308C32.8602 66.4759 32.8602 65.4568 32.0548 64.8588C31.8984 64.7563 31.7327 64.6689 31.5599 64.5978C31.4592 64.5725 31.3292 64.522 31.2243 64.4925L31.0146 64.4167C30.8365 64.3588 30.6542 64.3152 30.4693 64.2861C30.2921 64.2341 30.1086 64.2071 29.924 64.2061C29.7352 64.1764 29.5446 64.1595 29.3536 64.1556C29.2235 64.1556 29.0935 64.1809 28.9635 64.1809C28.7691 64.1798 28.5756 64.2067 28.3888 64.2609C28.2084 64.2861 28.0281 64.3114 27.8435 64.3619C27.658 64.4119 27.4758 64.4738 27.2982 64.5472C27.1179 64.623 26.9627 64.703 26.7781 64.783C26.6229 64.8588 26.4677 64.9641 26.2832 65.0441C20.2262 69.011 23.8419 78.3006 27.9736 80.9914C26.4132 81.2778 24.8276 81.6147 24.3872 81.9558L24.3327 82.0063C25.4526 82.6843 26.6229 83.2612 27.8435 83.7581C29.5088 84.3055 31.2747 84.7982 32.0548 85.0088V85.0341C34.2089 85.4781 36.4116 85.6367 38.6067 85.5057C50.1249 84.6972 59.5626 75.9003 61.2782 64.3114L61.4334 64.9894C61.5131 65.461 61.6138 65.9579 61.6683 66.4506V66.4759C61.7186 66.7117 61.7438 66.9475 61.7732 67.1581V67.2591C61.7983 67.495 61.8235 67.7308 61.8235 67.9413C61.8487 68.2277 61.8738 68.514 61.8738 68.8004V69.2215C61.8738 69.3478 61.9032 69.5036 61.9032 69.6342C61.9032 69.7942 61.8738 69.95 61.8738 70.1058V70.4722C61.8738 70.6533 61.8487 70.8091 61.8487 70.9944C61.8487 71.0996 61.8487 71.2049 61.8235 71.3312C61.8235 71.5165 61.7983 71.6976 61.7983 71.9082C61.7732 71.984 61.7732 72.064 61.7732 72.1398L61.6893 72.742C61.6893 72.822 61.6893 72.8978 61.6683 72.9778C61.6389 73.2389 61.5886 73.4747 61.5634 73.7358V73.7863L61.4082 74.519V74.5948L61.253 75.2981C61.253 75.3275 61.2237 75.3823 61.2237 75.4033C61.1759 75.6422 61.1157 75.8783 61.0433 76.1108V76.1866C60.9636 76.4477 60.8881 76.6835 60.8336 76.9193C60.8084 76.9446 60.8084 76.9699 60.8084 76.9699L60.5735 77.7531C60.4729 78.0142 60.3932 78.25 60.2883 78.5111C60.1834 78.7722 60.1079 79.0333 60.0031 79.2691C59.8982 79.5302 59.7933 79.7618 59.6927 80.0271H59.6633C59.5626 80.2587 59.4536 80.5198 59.3278 80.7556C59.3059 80.818 59.2793 80.8785 59.2481 80.9367C59.2229 80.962 59.2229 80.9914 59.1977 81.0167C57.4783 84.4725 54.9757 87.4753 51.8908 89.7841C51.6811 89.9147 51.4756 90.0747 51.2658 90.2305C51.2155 90.281 51.14 90.3063 51.0855 90.3568C50.8995 90.4948 50.7093 90.6268 50.515 90.7527L50.5905 90.9085H50.6199L51.7105 90.7527H51.7356C52.4109 90.6474 53.0863 90.5169 53.7616 90.3863C53.9462 90.3611 54.1517 90.3063 54.3362 90.2558L54.7012 90.1758C54.8815 90.1505 55.0619 90.1 55.2465 90.0747C55.4017 90.02 55.5569 89.9905 55.7121 89.9442C58.3127 89.3125 60.8336 88.4535 63.2538 87.4386C59.0754 93.1523 53.5182 97.7054 47.1049 100.67C50.0998 100.459 53.0863 99.9665 55.9721 99.1285C66.4174 96.0454 75.2395 88.9684 80.5396 79.4207C79.4691 85.4647 77.0814 91.1964 73.5472 96.206C76.067 94.5374 78.3951 92.5941 80.4892 90.4116C86.3085 84.3123 90.1289 76.5709 91.437 68.2277C92.3178 72.3545 92.5779 76.6077 92.192 80.8061C110.958 54.5249 93.7482 27.2751 86.5461 20.0994C86.521 20.0447 86.4958 20.0194 86.4958 19.9689C86.4706 19.9941 86.4706 19.9941 86.4706 20.0194C86.4706 19.9941 86.4706 19.9941 86.4413 19.9689C86.4413 20.2805 86.4161 20.5921 86.3909 20.9079C86.3189 21.4926 86.2321 22.0753 86.1309 22.6555C86.005 23.2282 85.8456 23.8052 85.6904 24.3821C85.5059 24.9295 85.3004 25.5022 85.0613 26.0497C84.8236 26.5903 84.5647 27.1213 84.2853 27.6414C83.7049 28.6646 83.0353 29.6341 82.2845 30.5387C81.8944 31.0061 81.4791 31.423 81.0597 31.8441C80.8145 32.0691 80.5627 32.2868 80.3047 32.4968L79.709 33.019C79.2449 33.3867 78.7588 33.7256 78.2535 34.0338C77.7566 34.3551 77.2443 34.6517 76.7183 34.9224C76.173 35.1835 75.6277 35.4193 75.0824 35.6551C73.9718 36.0792 72.8227 36.3937 71.6513 36.5942C71.0515 36.6994 70.4559 36.75 69.8812 36.8047C69.4666 36.8342 69.0511 36.851 68.6354 36.8553C68.0441 36.8471 67.4535 36.8119 66.8653 36.75C66.2715 36.7032 65.6815 36.6159 65.0994 36.4889C64.5098 36.3815 63.9282 36.2337 63.3587 36.0467H63.3293C63.904 35.992 64.4744 35.9415 65.0491 35.8362C66.2197 35.6324 67.3686 35.318 68.4802 34.8971C69.0507 34.6866 69.596 34.4255 70.1161 34.1644C70.6614 33.9033 71.1563 33.6169 71.6765 33.3053C72.1714 32.9684 72.6622 32.6273 73.132 32.261C73.6018 31.8946 74.0422 31.503 74.4575 31.0861C74.8979 30.6945 75.288 30.2523 75.6781 29.8059C76.0682 29.3385 76.4331 28.8669 76.7687 28.3994C76.8232 28.3194 76.8777 28.2141 76.9281 28.1383C77.1881 27.7172 77.4482 27.3003 77.6831 26.8834C78.2562 25.8447 78.7255 24.7515 79.084 23.6199C79.2686 23.0724 79.3986 22.4997 79.5287 21.9228C79.6335 21.3248 79.7384 20.7521 79.7887 20.1752C79.8391 19.5772 79.8936 18.9751 79.8936 18.4024C79.8936 17.9813 79.8642 17.5644 79.8391 17.1475C79.7872 16.5629 79.7173 15.9801 79.6293 15.3999C79.5282 14.8116 79.3995 14.2284 79.2434 13.6523C79.0589 13.1048 78.8785 12.5279 78.6688 11.9805C78.4591 11.433 78.2032 10.8856 77.9431 10.3634C77.6537 9.84126 77.3685 9.31909 77.0581 8.82218C76.726 8.33434 76.3791 7.85686 76.0178 7.39042C75.6277 6.94405 75.2376 6.49768 74.8224 6.05551C74.6036 5.83147 74.3784 5.61381 74.1471 5.4028C72.9726 4.489 71.7562 3.62994 70.5314 2.84668C70.3634 2.74927 70.1897 2.66208 70.0112 2.58559C69.2401 2.11157 68.4092 1.73913 67.5407 1.48651Z" fill="url(#paint0_linear_64_93)"/>
<defs>
<linearGradient id="paint0_linear_64_93" x1="50.3349" y1="0" x2="50.3349" y2="100.67" gradientUnits="userSpaceOnUse">
<stop offset="0.225" stop-color="#CA79E5"/>
<stop offset="0.69" stop-color="#4E437F"/>
</linearGradient>
</defs>
</svg>
